<?xml version="1.0" encoding="utf-8"?>
<!-- Generator: Adobe Illustrator 18.1.1, SVG Export Plug-In . SVG Version: 6.00 Build 0)  -->
<svg version="1.1" id="Layer_1" xmlns="http://www.w3.org/2000/svg" xmlns:xlink="http://www.w3.org/1999/xlink" x="0px" y="0px"
	 viewBox="0 0 1251.9 418.1" enable-background="new 0 0 1251.9 418.1" xml:space="preserve">
<g>
	<path fill="#E63E11" d="M244.9,232.4v-46.8c16-3.1,28.2-17.3,28.2-34.2c0-19.3-15.6-34.9-34.9-34.9c-9.6,0-18.3,3.9-24.6,10.1
		l-44-27.4c0.2-1.4,0.2-2.7,0.2-4.2c0-19.3-15.6-34.9-34.9-34.9S100,75.6,100,94.9s15.6,34.9,34.9,34.9c13,0,24.3-7.1,30.3-17.6
		l40.8,25.4c-1.8,4.2-2.8,8.8-2.8,13.6c0,17,12.1,31.1,28.2,34.2v46.8c-16,3.1-28.2,17.3-28.2,34.2c0,19.3,15.6,34.9,34.9,34.9
		c19.3,0,34.9-15.6,34.9-34.9C273,249.6,260.9,235.5,244.9,232.4"/>
	<path fill="#E63E11" d="M169.8,208.9c0-19.3-15.6-34.9-34.9-34.9c-19.3,0-34.9,15.6-34.9,34.9c0,17,12.1,31.1,28.2,34.2v46.4
		c-8.6,1.7-16.1,6.5-21.1,13.3l-39.2-24.4c1.3-3.7,2-7.6,2-11.8c0-17-12.1-31.1-28.2-34.2v-46.8c16-3.1,28.2-17.3,28.2-34.2
		c0-19.3-15.6-34.9-34.9-34.9C15.6,116.4,0,132,0,151.3c0,17,12.1,31.1,28.2,34.2v46.8C12.1,235.5,0,249.6,0,266.6
		c0,19.3,15.6,34.9,34.9,34.9c10.3,0,19.6-4.5,25.9-11.6l40.3,25.1c-0.7,2.8-1.1,5.7-1.1,8.8c0,19.3,15.6,34.9,34.9,34.9
		c19.3,0,34.9-15.6,34.9-34.9c0-17-12.1-31.1-28.2-34.2v-46.4C157.7,240,169.8,225.9,169.8,208.9"/>
	<path fill="#231F20" d="M893.2,118.7c2.3,0,4.4,0.5,6.2,1.6c1.8,1.1,3.2,2.5,4.3,4.2l-3.6,2.8c-1.7-2.6-4-3.9-6.8-3.9
		c-1.4,0-2.6,0.3-3.5,1c-0.9,0.7-1.4,1.7-1.4,3c0,1.1,0.4,2,1,2.6c0.7,0.6,1.9,1.3,3.5,2.1l3.6,1.7c2.6,1.2,4.6,2.6,5.9,4
		c1.3,1.4,1.9,3.2,1.9,5.3c0,2.8-1,5.1-3.1,6.8c-2.1,1.7-4.7,2.6-7.8,2.6c-2.7,0-5.1-0.6-7.2-1.9c-2.1-1.2-3.8-3-5-5.2l3.7-2.8
		c2.4,3.5,5.3,5.2,8.6,5.2c1.7,0,3-0.4,4.1-1.2c1-0.8,1.6-1.9,1.6-3.3c0-1.1-0.3-2-1.1-2.7c-0.7-0.6-2-1.4-3.7-2.2l-3.6-1.7
		c-2.4-1.1-4.3-2.3-5.6-3.7c-1.3-1.4-2-3.2-2-5.3c0-2.6,1-4.7,3-6.4c2-1.6,4.4-2.5,7.3-2.5L893.2,118.7z"/>
	<rect x="920.6" y="119.4" fill="#231F20" width="5.2" height="32.5"/>
	<path fill="#231F20" d="M958.9,134.2c1.9,0.6,3.4,1.7,4.5,3.1c1.1,1.4,1.6,3.2,1.6,5.2c0,2.8-1,5-2.9,6.8c-1.9,1.8-4.5,2.7-7.6,2.7
		h-10v-32.5h7.5c2.9,0,5.3,0.8,7,2.4c1.8,1.6,2.7,3.7,2.7,6.3C961.6,130.6,960.7,132.6,958.9,134.2L958.9,134.2z M949.6,124v8.8h1.8
		c1.6,0,2.9-0.4,3.8-1.2c0.9-0.8,1.3-1.9,1.3-3.2c0-1.3-0.4-2.4-1.3-3.2c-0.9-0.8-2.1-1.2-3.8-1.2H949.6z M953.9,147.3
		c1.8,0,3.3-0.4,4.2-1.3c1-0.9,1.5-2.1,1.5-3.6c0-1.5-0.5-2.8-1.5-3.7c-1-0.9-2.4-1.4-4.2-1.4h-4.4v10.1L953.9,147.3L953.9,147.3z"
		/>
	<polygon fill="#231F20" points="1000.1,124 987.9,124 987.9,132.3 1000.1,132.3 1000.1,136.9 987.9,136.9 987.9,147.2 
		1000.1,147.2 1000.1,151.9 982.7,151.9 982.7,119.3 1000.1,119.3 	"/>
	<path fill="#231F20" d="M1040.5,151.9l-9.3-12.6h-6v12.6h-5.2v-32.5h11.9c3.3,0,6,0.9,8,2.8c2,1.8,3.1,4.2,3.1,7.2
		c0,2.1-0.5,4-1.6,5.6c-1.1,1.6-2.6,2.8-4.6,3.5l9.8,13.4H1040.5z M1025.2,134.7h6.6c1.8,0,3.3-0.5,4.3-1.5c1-1,1.5-2.3,1.5-3.8
		c0-1.6-0.5-2.9-1.5-3.9c-1-1-2.5-1.5-4.3-1.5h-6.6V134.7z"/>
	<rect x="1060.6" y="119.3" fill="#231F20" width="5.2" height="32.5"/>
	<path fill="#231F20" d="M1100.7,146.4h-14.6l-2.3,5.4h-5.6l14.3-33.1h1.8l14.3,33.1h-5.6L1100.7,146.4z M1093.4,128.4l-5.4,13.5
		h10.8L1093.4,128.4z"/>
	<polygon fill="#231F20" points="1146.6,119.3 1146.6,152.4 1144.8,152.4 1125,129.9 1125,151.9 1119.8,151.9 1119.8,118.8 
		1121.6,118.8 1141.4,141.3 1141.4,119.3 	"/>
	<polygon fill="#231F20" points="904.4,198 888.8,198 888.8,207.7 901.7,207.7 901.7,212.4 888.8,212.4 888.8,225.8 883.5,225.8 
		883.5,193.3 904.4,193.3 	"/>
	<polygon fill="#231F20" points="937.7,198 925.8,198 925.8,206.3 937.7,206.3 937.7,210.9 925.8,210.9 925.8,221.2 937.7,221.2 
		937.7,225.8 920.6,225.8 920.6,193.3 937.7,193.3 	"/>
	<path fill="#231F20" d="M965,193.3c5.4,0,9.7,1.5,12.9,4.5c3.2,3,4.8,6.9,4.8,11.7c0,4.8-1.6,8.7-4.9,11.7
		c-3.3,3.1-7.6,4.6-12.9,4.6h-10.2v-32.5H965L965,193.3z M960,198v23.1h4.9c3.8,0,6.8-1.1,9-3.3c2.2-2.2,3.4-5,3.4-8.4
		c0-3.5-1.1-6.3-3.3-8.4c-2.2-2.1-5.2-3.1-9-3.1H960z"/>
	<polygon fill="#231F20" points="1014.9,198 1002.8,198 1002.8,206.3 1014.9,206.3 1014.9,210.9 1002.8,210.9 1002.8,221.2 
		1014.9,221.2 1014.9,225.8 997.6,225.8 997.6,193.3 1014.9,193.3 	"/>
	<path fill="#231F20" d="M1052.2,225.8l-9.3-12.6h-6v12.6h-5.2v-32.5h11.9c3.3,0,6,0.9,8,2.8c2,1.8,3.1,4.2,3.1,7.2
		c0,2.1-0.5,4-1.6,5.6c-1.1,1.6-2.6,2.8-4.6,3.5l9.8,13.4H1052.2z M1037,208.6h6.6c1.8,0,3.3-0.5,4.3-1.5c1-1,1.5-2.3,1.5-3.8
		c0-1.6-0.5-2.9-1.5-3.9c-1-1-2.5-1.5-4.3-1.5h-6.6V208.6z"/>
	<path fill="#231F20" d="M1087.6,220.4h-14.6l-2.3,5.4h-5.6l14.3-33.1h1.8l14.3,33.1h-5.6L1087.6,220.4z M1080.3,202.4l-5.4,13.5
		h10.8L1080.3,202.4z"/>
	<polygon fill="#231F20" points="1112.2,221.2 1127,221.2 1127,225.8 1106.9,225.8 1106.9,193.3 1112.2,193.3 	"/>
	<path fill="#231F20" d="M909.8,287c-0.1,4.2-1.2,7.6-3.7,10.1c-2.5,2.5-5.7,3.7-9.6,3.7c-4,0-7.2-1.2-9.7-3.7
		c-2.5-2.5-3.7-5.8-3.7-10.1v-19.4h5.2v19.7c0,2.8,0.8,4.9,2.3,6.4c1.5,1.5,3.5,2.2,5.9,2.2c2.4,0,4.3-0.7,5.8-2.2
		c1.5-1.5,2.3-3.6,2.3-6.4v-19.7h5.2L909.8,287z"/>
	<polygon fill="#231F20" points="954.8,267.9 954.8,301 953,301 933.2,278.4 933.2,300.4 927.9,300.4 927.9,267.3 929.8,267.3 
		949.5,289.8 949.5,267.9 	"/>
	<rect x="973.2" y="267.9" fill="#231F20" width="5.2" height="32.5"/>
	<polygon fill="#231F20" points="1023.5,267.6 1009.2,300.7 1007.4,300.7 993,267.6 998.9,267.6 1008.3,290.2 1017.6,267.6 	"/>
	<polygon fill="#231F20" points="1055.2,272.6 1043,272.6 1043,280.9 1055.2,280.9 1055.2,285.4 1043,285.4 1043,295.7 
		1055.2,295.7 1055.2,300.4 1037.7,300.4 1037.7,267.9 1055.2,267.9 	"/>
	<path fill="#231F20" d="M1093.4,300.4l-9.3-12.6h-6v12.6h-5.2v-32.5h11.9c3.3,0,6,0.9,8,2.8c2,1.8,3.1,4.2,3.1,7.2
		c0,2.1-0.5,4-1.6,5.6c-1.1,1.6-2.6,2.8-4.6,3.5l9.8,13.4H1093.4z M1078.2,283.2h6.6c1.8,0,3.3-0.5,4.3-1.5c1-1,1.5-2.3,1.5-3.8
		c0-1.6-0.5-2.9-1.5-3.9c-1-1-2.5-1.5-4.3-1.5h-6.6V283.2z"/>
	<path fill="#231F20" d="M1122.2,267c2.3,0,4.4,0.5,6.2,1.6c1.8,1.1,3.2,2.5,4.3,4.2l-3.6,2.8c-1.7-2.6-4-3.9-6.8-3.9
		c-1.4,0-2.6,0.3-3.5,1c-0.9,0.7-1.4,1.7-1.4,3c0,1.1,0.3,2,1,2.6c0.7,0.6,1.9,1.3,3.5,2.1l3.6,1.7c2.6,1.2,4.6,2.6,5.9,4
		c1.3,1.4,1.9,3.2,1.9,5.3c0,2.8-1,5.1-3.1,6.8c-2.1,1.7-4.7,2.6-7.8,2.6c-2.7,0-5.1-0.6-7.2-1.9c-2.1-1.2-3.8-3-5-5.2l3.7-2.8
		c2.4,3.5,5.3,5.2,8.6,5.2c1.7,0,3-0.4,4.1-1.2c1-0.8,1.6-1.9,1.6-3.3c0-1.1-0.3-2-1.1-2.7c-0.7-0.6-2-1.4-3.7-2.2l-3.6-1.7
		c-2.4-1.1-4.3-2.3-5.6-3.7c-1.3-1.4-2-3.2-2-5.3c0-2.6,1-4.7,3-6.4c2-1.6,4.4-2.5,7.3-2.5L1122.2,267z"/>
	<rect x="1148.2" y="267.9" fill="#231F20" width="5.2" height="32.5"/>
	<polygon fill="#231F20" points="1187.1,272.6 1180,272.6 1180,300.4 1174.8,300.4 1174.8,272.6 1167.7,272.6 1167.7,267.9 
		1187.1,267.9 	"/>
	<polygon fill="#231F20" points="1212.6,287.3 1212.6,300.4 1207.4,300.4 1207.4,287.3 1196.2,267.9 1202,267.9 1210,282 
		1218.1,267.9 1223.9,267.9 	"/>
	<rect x="817.9" y="118.6" fill="#231F20" width="5.3" height="182.4"/>
	<path fill="#231F20" d="M354.2,118.7c3,0,5.7,0.7,8.2,2c2.5,1.3,4.4,3.2,5.8,5.5l-3.9,2.9c-2.4-3.7-5.7-5.6-9.9-5.6
		c-3.4,0-6.2,1.1-8.4,3.4c-2.2,2.3-3.4,5.1-3.4,8.6c0,3.5,1.1,6.3,3.4,8.6c2.2,2.3,5,3.4,8.4,3.4c4.2,0,7.5-1.9,9.9-5.6l3.9,2.9
		c-1.4,2.3-3.3,4.1-5.8,5.5c-2.5,1.3-5.2,2-8.2,2c-4.8,0-8.8-1.6-12.1-4.8c-3.3-3.2-4.9-7.2-4.9-12c0-4.7,1.7-8.7,5-12
		c3.3-3.3,7.3-4.9,12.1-4.9L354.2,118.7z"/>
	<polygon fill="#231F20" points="418.1,118.6 418.1,151.7 412.9,151.7 412.9,129.3 392.6,152.2 390.8,152.2 390.8,119.1 396,119.1 
		396,141.5 416.3,118.6 	"/>
	<path fill="#231F20" d="M462.9,123.8h-12.4v8.7h4.5c3.2,0,5.8,0.9,7.7,2.7c1.9,1.8,2.9,4.1,2.9,7c0,2.8-0.9,5.1-2.9,6.9
		c-1.9,1.8-4.5,2.7-7.7,2.7h-9.7v-32.5h17.6L462.9,123.8z M450.4,136.9V147h4.1c1.8,0,3.3-0.4,4.2-1.3c1-0.9,1.5-2.1,1.5-3.6
		c0-1.5-0.5-2.8-1.5-3.7c-1-0.9-2.4-1.4-4.2-1.4L450.4,136.9z"/>
	<polygon fill="#231F20" points="516.7,118.6 516.7,151.6 511.4,151.6 511.4,129.3 491.2,152.2 489.3,152.2 489.3,119.1 
		494.6,119.1 494.6,141.4 514.9,118.6 	"/>
	<path fill="#231F20" d="M549.6,118.8c3.3,0,6,0.9,8,2.8c2,1.8,3.1,4.2,3.1,7.2c0,3-1,5.4-3.1,7.2c-2,1.9-4.7,2.8-8,2.8h-3.8v12.6
		h-5.2v-32.5L549.6,118.8L549.6,118.8z M545.7,123.5v10.7h3.7c1.8,0,3.3-0.5,4.2-1.5c1-1,1.5-2.3,1.5-3.9c0-1.6-0.5-2.9-1.5-3.9
		c-1-1-2.4-1.5-4.2-1.5L545.7,123.5z"/>
	<path fill="#231F20" d="M595.7,118.7c3,0,5.7,0.7,8.2,2c2.5,1.3,4.4,3.2,5.8,5.5l-3.9,2.9c-2.4-3.7-5.7-5.6-9.9-5.6
		c-3.4,0-6.2,1.1-8.4,3.4c-2.2,2.3-3.4,5.1-3.4,8.6c0,3.5,1.1,6.3,3.4,8.6c2.2,2.3,5,3.4,8.4,3.4c4.2,0,7.5-1.9,9.9-5.6l3.9,2.9
		c-1.4,2.3-3.3,4.1-5.8,5.5c-2.5,1.3-5.2,2-8.2,2c-4.8,0-8.8-1.6-12.1-4.8c-3.3-3.2-4.9-7.2-4.9-12c0-4.7,1.7-8.7,5-12
		c3.3-3.3,7.3-4.9,12.1-4.9L595.7,118.7z"/>
	<polygon fill="#231F20" points="707.1,118.6 707.1,151.7 701.9,151.7 701.9,129.3 681.6,152.2 679.8,152.2 679.8,119.1 685,119.1 
		685,141.5 705.3,118.6 	"/>
	<path fill="#231F20" d="M756.2,118.6v33.1h-5.2v-22.4l-20.3,22.9h-1.8v-33.1h5.2v22.3l20.3-22.9H756.2z M742,115.4
		c-2.3,0-4.3-0.7-5.7-2.3c-1.5-1.5-2.2-3.5-2.2-5.8h4.2c0,1.2,0.3,2.2,1,3c0.7,0.7,1.6,1.1,2.8,1.1c1.1,0,2.1-0.3,2.8-1.1
		c0.7-0.7,1-1.7,1-3h4.2c0,2.3-0.7,4.2-2.2,5.8C746.3,114.7,744.4,115.4,742,115.4L742,115.4z"/>
	<path fill="#231F20" d="M373.2,209.2c0,4.2-1.4,7.5-4.3,10c-2.9,2.5-6.6,3.7-11.1,3.7v4.4h-5.2v-4.4c-4.5,0-8.2-1.3-11.1-3.8
		c-2.9-2.5-4.3-5.8-4.3-9.9c0-4.1,1.4-7.4,4.3-9.8c2.9-2.4,6.6-3.6,11.1-3.7v-4.1h5.2v4.1c4.6,0,8.3,1.3,11.1,3.7
		C371.8,201.8,373.2,205,373.2,209.2L373.2,209.2z M342.4,209.4c0,2.8,0.9,5,2.8,6.6c1.8,1.6,4.3,2.4,7.4,2.4v-18
		c-3.1,0-5.6,0.8-7.4,2.4C343.3,204.2,342.4,206.4,342.4,209.4L342.4,209.4z M357.7,218.2c3.1,0,5.6-0.8,7.4-2.4
		c1.8-1.6,2.8-3.8,2.8-6.6c0-2.9-0.9-5.1-2.7-6.7c-1.8-1.6-4.3-2.4-7.4-2.4L357.7,218.2L357.7,218.2z"/>
	<path fill="#231F20" d="M512.6,192.8c3.3,0,6,0.9,8,2.8c2,1.8,3,4.2,3,7.2c0,3-1,5.4-3,7.2c-2,1.9-4.7,2.8-8,2.8h-3.5v12.6h-5.2
		v-32.5L512.6,192.8L512.6,192.8z M509.1,197.4v10.7h3.4c1.8,0,3.3-0.5,4.2-1.5c1-1,1.5-2.3,1.5-3.9c0-1.6-0.5-2.9-1.5-3.9
		c-1-1-2.4-1.5-4.2-1.5L509.1,197.4z"/>
	<path fill="#231F20" d="M551.7,220.2H537l-2.3,5.4h-5.6l14.3-33.1h1.8l14.3,33.1H554L551.7,220.2z M544.4,202.2l-5.4,13.5h10.8
		L544.4,202.2z"/>
	<path fill="#231F20" d="M613,205.7h3.2c3.4,0,6.2,0.9,8.2,2.9c2.1,1.9,3.1,4.4,3.1,7.4c0,3.1-1,5.5-3.1,7.4
		c-2.1,1.9-4.8,2.8-8.2,2.8h-8.4v-32.5h5.2V205.7z M613,210.4v11.2h3.2c1.9,0,3.4-0.5,4.4-1.6c1-1,1.6-2.4,1.6-4.1
		c0-1.7-0.5-3.1-1.6-4.1c-1-1-2.5-1.6-4.4-1.6L613,210.4z"/>
	<path fill="#231F20" d="M689,205.2h3.5c3.4,0,6.2,0.9,8.2,2.9c2.1,1.9,3.1,4.4,3.1,7.4c0,3.1-1,5.5-3.1,7.4
		c-2.1,1.9-4.8,2.8-8.2,2.8h-8.8v-32.5h5.2V205.2z M689,209.9v11.2h3.5c1.9,0,3.4-0.5,4.4-1.6c1-1,1.6-2.4,1.6-4.1
		c0-1.7-0.5-3.1-1.6-4.1c-1-1-2.5-1.6-4.4-1.6L689,209.9z M713.1,225.7h-5.2v-32.5h5.2V225.7z"/>
	<path fill="#231F20" d="M756.2,192.6v33.1h-5.2v-22.4l-20.3,22.9h-1.8v-33.1h5.2v22.3l20.3-22.9H756.2z M742,189.4
		c-2.3,0-4.3-0.7-5.7-2.3c-1.5-1.5-2.2-3.5-2.2-5.8h4.2c0,1.2,0.3,2.2,1,3c0.7,0.7,1.6,1.1,2.8,1.1c1.1,0,2.1-0.3,2.8-1.1
		c0.7-0.7,1-1.7,1-3h4.2c0,2.3-0.7,4.2-2.2,5.8C746.3,188.7,744.4,189.4,742,189.4L742,189.4z"/>
	<path fill="#231F20" d="M366.7,267.1l-11.3,26.2c-2,4.6-5.4,6.9-10.3,6.9c-1.3,0-2.7-0.1-4.1-0.5v-4.5c2,0.2,3,0.2,3.1,0.2
		c3,0,5.1-1.2,6.2-3.7l-11.5-24.6h6l8.3,18.8l7.6-18.8H366.7z"/>
	<polygon fill="#231F20" points="409.5,299.7 404.3,299.7 404.3,284.8 387.9,284.8 387.9,299.7 382.7,299.7 382.7,267.1 
		387.9,267.1 387.9,280.1 404.3,280.1 404.3,267.1 409.5,267.1 	"/>
	<polygon fill="#231F20" points="456.8,266.6 456.8,299.7 451.6,299.7 451.6,277.3 431.3,300.2 429.5,300.2 429.5,267.1 
		434.8,267.1 434.8,289.5 455.1,266.6 	"/>
	<path fill="#231F20" d="M490.9,281.6c1.9,0.6,3.4,1.7,4.5,3.1c1.1,1.4,1.6,3.2,1.6,5.2c0,2.8-1,5-2.9,6.8c-1.9,1.8-4.5,2.7-7.6,2.7
		h-9.9v-32.5h7.4c2.9,0,5.3,0.8,7,2.4c1.8,1.6,2.7,3.7,2.7,6.3C493.7,278,492.7,280.1,490.9,281.6L490.9,281.6z M481.7,271.4v8.8
		h1.7c1.6,0,2.9-0.4,3.7-1.2c0.9-0.8,1.3-1.9,1.3-3.2c0-1.3-0.4-2.4-1.3-3.2c-0.9-0.8-2.1-1.2-3.7-1.2H481.7z M486,294.8
		c1.8,0,3.3-0.4,4.2-1.3c1-0.9,1.5-2.1,1.5-3.6c0-1.5-0.5-2.8-1.5-3.7c-1-0.9-2.4-1.4-4.2-1.4h-4.3v10.1L486,294.8L486,294.8z"/>
	<path fill="#231F20" d="M559.5,266.3c3.3,0,6,0.9,8,2.8c2,1.8,3,4.2,3,7.2c0,3-1,5.4-3,7.2c-2,1.9-4.7,2.8-8,2.8h-3.6v12.6h-5.2
		v-32.5L559.5,266.3L559.5,266.3z M555.9,271v10.7h3.5c1.8,0,3.3-0.5,4.2-1.5c1-1,1.5-2.3,1.5-3.9c0-1.6-0.5-2.9-1.5-3.9
		c-1-1-2.4-1.5-4.2-1.5L555.9,271z"/>
	<path fill="#231F20" d="M598.6,266.4c3,0,5.7,0.7,8.2,2c2.5,1.3,4.4,3.2,5.8,5.5l-3.9,2.9c-2.4-3.7-5.7-5.6-9.9-5.6
		c-3.4,0-6.2,1.1-8.4,3.4c-2.2,2.3-3.4,5.1-3.4,8.6c0,3.5,1.1,6.3,3.4,8.6c2.2,2.3,5,3.4,8.4,3.4c4.2,0,7.5-1.9,9.9-5.6l3.9,2.9
		c-1.4,2.3-3.3,4.1-5.8,5.5c-2.5,1.3-5.2,2-8.2,2c-4.8,0-8.8-1.6-12.1-4.8c-3.3-3.2-4.9-7.2-4.9-12c0-4.7,1.7-8.7,5-12
		c3.3-3.3,7.3-4.9,12.1-4.9L598.6,266.4z"/>
	<polygon fill="#231F20" points="654.6,266.6 654.6,299.7 649.4,299.7 649.4,277.3 629.1,300.2 627.3,300.2 627.3,267.1 
		632.6,267.1 632.6,289.5 652.9,266.6 	"/>
	<polygon fill="#231F20" points="688.7,271.8 681.6,271.8 681.6,299.7 676.4,299.7 676.4,271.8 669.4,271.8 669.4,267.1 
		688.7,267.1 	"/>
	<polygon fill="#231F20" points="756.2,271.8 749.1,271.8 749.1,299.7 743.9,299.7 743.9,271.8 736.8,271.8 736.8,267.1 
		756.2,267.1 	"/>
	<polygon fill="#231F20" points="406.6,220.5 394.9,220.5 394.9,210.2 406.6,210.2 406.6,205.7 394.9,205.7 394.9,197.3 
		406.6,197.3 406.6,192.7 389.7,192.7 389.7,225.2 406.6,225.2 	"/>
	<polygon fill="#231F20" points="486.8,221 474.2,221 474.2,210.7 486.4,210.7 486.4,206.1 474.2,206.1 474.2,197.8 486.8,197.8 
		486.8,193.1 469,193.1 469,225.7 486.8,225.7 	"/>
	<polygon fill="#231F20" points="531.4,294.7 519,294.7 519,284.4 531.1,284.4 531.1,279.9 519,279.9 519,271.5 531.4,271.5 
		531.4,266.8 513.7,266.8 513.7,299.4 531.4,299.4 	"/>
	<polygon fill="#231F20" points="722.6,295 710.5,295 710.5,284.7 722.6,284.7 722.6,280.1 710.5,280.1 710.5,271.8 722.6,271.8 
		722.6,267.1 705.3,267.1 705.3,299.7 722.6,299.7 	"/>
	<path fill="#231F20" d="M630.7,119.1h5.2v32.5h-5.2V119.1z M658.8,151.7h-6.5l-15.1-17.3l13.7-15.2h6.4l-13.5,15.2L658.8,151.7z"/>
	<rect x="632.5" y="132.3" fill="#231F20" width="7.5" height="4.3"/>
	<polygon fill="#231F20" points="668,226.1 662.8,226.1 662.8,211.2 646.5,211.2 646.5,226.1 641.2,226.1 641.2,193.6 646.5,193.6 
		646.5,206.5 662.8,206.5 662.8,193.6 668,193.6 	"/>
	<path fill="#231F20" d="M452.8,220.5v11.7h-5.2v-7h-22v7h-5.2v-11.7h2.5c2.2-1.9,3.9-4.7,5.1-8.3c1.2-3.6,1.8-8.6,1.8-14.9v-4.6h19
		v27.9L452.8,220.5z M428.7,220.5h14.8v-23.2h-8.8C434.6,208.3,432.6,216.1,428.7,220.5"/>
	<path fill="#231F20" d="M592.8,193.5v32.4h-5.2v-27.7H578c0,5.1-0.4,9.4-1,13c-0.6,3.6-1.6,6.4-2.8,8.5c-1.2,2.1-2.6,3.6-4.1,4.6
		c-1.5,1-3.3,1.6-5.4,1.9v-4.9c2.8-0.6,4.9-2.7,6.2-6.2c1.3-3.5,2-8.9,2-16.3v-5.3L592.8,193.5z"/>
</g>
</svg>
